<mxfile host="65bd71144e">
    <diagram id="7j5klaWZAKbqsNiNILGi" name="Page-1">
        <mxGraphModel dx="926" dy="607" grid="1" gridSize="10" guides="1" tooltips="1" connect="1" arrows="1" fold="1" page="1" pageScale="1" pageWidth="1180" pageHeight="1050" math="0" shadow="0">
            <root>
                <mxCell id="0"/>
                <mxCell id="1" parent="0"/>
                <mxCell id="4" value="" style="edgeStyle=none;html=1;exitX=1;exitY=0.5;exitDx=0;exitDy=0;" edge="1" parent="1" source="5" target="3">
                    <mxGeometry relative="1" as="geometry"/>
                </mxCell>
                <mxCell id="6" value="" style="edgeStyle=none;html=1;" edge="1" parent="1" source="2" target="5">
                    <mxGeometry relative="1" as="geometry"/>
                </mxCell>
                <mxCell id="2" value="downloaded raw data (values for each minute for 2014-2022)&lt;br&gt;---&lt;br&gt;index: timestamp" style="whiteSpace=wrap;html=1;" vertex="1" parent="1">
                    <mxGeometry x="100" y="70" width="120" height="110" as="geometry"/>
                </mxCell>
                <mxCell id="3" value="TMY (values for each timePerDay aggaveraged per_year)&lt;br&gt;&lt;br&gt;---&lt;br&gt;index: timestamp with dummy-year 2019" style="whiteSpace=wrap;html=1;" vertex="1" parent="1">
                    <mxGeometry x="420" y="195" width="200" height="150" as="geometry"/>
                </mxCell>
                <mxCell id="5" value="coarsened to target temporal resolution defined by&lt;br&gt;#&lt;span style=&quot;color: rgb(156 , 220 , 254) ; background-color: rgb(30 , 30 , 30) ; font-family: &amp;#34;consolas&amp;#34; , &amp;#34;courier new&amp;#34; , monospace ; font-size: 14px&quot;&gt;time_step_in_minutes&lt;br&gt;&lt;/span&gt;---&lt;br&gt;index: timestamp&lt;span style=&quot;color: rgb(156 , 220 , 254) ; background-color: rgb(30 , 30 , 30) ; font-family: &amp;#34;consolas&amp;#34; , &amp;#34;courier new&amp;#34; , monospace ; font-size: 14px&quot;&gt;&lt;br&gt;&lt;/span&gt;" style="whiteSpace=wrap;html=1;" vertex="1" parent="1">
                    <mxGeometry x="55" y="220" width="210" height="100" as="geometry"/>
                </mxCell>
                <mxCell id="11" value="optionally aggregate over the week or&#10; over the month by pivot_table depending on" style="swimlane;fontStyle=0;childLayout=stackLayout;horizontal=1;startSize=30;horizontalStack=0;resizeParent=1;resizeParentMax=0;resizeLast=0;collapsible=1;marginBottom=0;" vertex="1" parent="1">
                    <mxGeometry x="400" y="405" width="310" height="120" as="geometry"/>
                </mxCell>
                <mxCell id="12" value="#aggregate_irradiance_perTimeOfDay" style="text;strokeColor=none;fillColor=none;align=left;verticalAlign=middle;spacingLeft=4;spacingRight=4;overflow=hidden;points=[[0,0.5],[1,0.5]];portConstraint=eastwest;rotatable=0;fontColor=#9CDCFE;" vertex="1" parent="11">
                    <mxGeometry y="30" width="310" height="30" as="geometry"/>
                </mxCell>
                <mxCell id="13" value="#irradiance_aggfunc" style="text;strokeColor=none;fillColor=none;align=left;verticalAlign=middle;spacingLeft=4;spacingRight=4;overflow=hidden;points=[[0,0.5],[1,0.5]];portConstraint=eastwest;rotatable=0;fontColor=#9CDCFE;" vertex="1" parent="11">
                    <mxGeometry y="60" width="310" height="30" as="geometry"/>
                </mxCell>
                <mxCell id="14" value="---&#10;multi-index: Month or Week, Hour, Minute " style="text;strokeColor=none;fillColor=none;align=left;verticalAlign=middle;spacingLeft=4;spacingRight=4;overflow=hidden;points=[[0,0.5],[1,0.5]];portConstraint=eastwest;rotatable=0;" vertex="1" parent="11">
                    <mxGeometry y="90" width="310" height="30" as="geometry"/>
                </mxCell>
                <mxCell id="16" value="&lt;span style=&quot;color: rgb(240 , 240 , 240) ; font-family: &amp;#34;helvetica&amp;#34; ; font-size: 12px ; font-style: normal ; font-weight: 400 ; letter-spacing: normal ; text-align: center ; text-indent: 0px ; text-transform: none ; word-spacing: 0px ; background-color: rgb(42 , 42 , 42) ; display: inline ; float: none&quot;&gt;(all right labled, so for time_step_in_minutes = 60 and hour = 10 means irradiation or average irradiance from 9 to 10)&lt;/span&gt;" style="text;whiteSpace=wrap;html=1;fontColor=#9CDCFE;" vertex="1" parent="1">
                    <mxGeometry x="290" y="60" width="320" height="30" as="geometry"/>
                </mxCell>
            </root>
        </mxGraphModel>
    </diagram>
</mxfile>